<svg id="airport_shuttel" xmlns="http://www.w3.org/2000/svg" width="24" height="24" viewBox="0 0 24 24">
  <g id="Group_6959" data-name="Group 6959" transform="translate(2.25 2.25)">
    <g id="Group_6958" data-name="Group 6958" transform="translate(0)">
      <g id="Group_6957" data-name="Group 6957">
        <path id="Path_26944" data-name="Path 26944" d="M649.6-2634.992h-1.95a.65.65,0,0,0-.65.65v1.95a.65.65,0,0,0,.65.65h3.575a.325.325,0,0,0,.284-.167.325.325,0,0,0-.009-.33l-1.625-2.6A.325.325,0,0,0,649.6-2634.992Zm-1.95,2.6v-1.95h1.77l1.219,1.95Z" transform="translate(-634.325 2644.417)"/>
        <path id="Path_26945" data-name="Path 26945" d="M392.649-2631.744h2.6a.65.65,0,0,0,.65-.65v-1.95a.65.65,0,0,0-.65-.65h-2.6a.65.65,0,0,0-.65.65v1.95A.65.65,0,0,0,392.649-2631.744Zm0-2.6h2.6v1.95h-2.6Z" transform="translate(-384.849 2644.419)"/>
        <path id="Path_26946" data-name="Path 26946" d="M155.25-2634.992h-2.6a.65.65,0,0,0-.65.65v1.95a.65.65,0,0,0,.65.65h2.6a.65.65,0,0,0,.65-.65v-1.95A.65.65,0,0,0,155.25-2634.992Zm0,2.6h-2.6v-1.95h2.6v1.95Z" transform="translate(-150.05 2644.417)"/>
        <path id="Path_26947" data-name="Path 26947" d="M212.976-2439.993h-.65a.325.325,0,0,0-.325.325.325.325,0,0,0,.325.325h.65a.325.325,0,0,0,.325-.325A.325.325,0,0,0,212.976-2439.993Z" transform="translate(-208.751 2453.643)"/>
        <path id="Path_26948" data-name="Path 26948" d="M452.326-2439.993a.325.325,0,0,0-.325.325.325.325,0,0,0,.325.325h.65a.325.325,0,0,0,.325-.325.325.325,0,0,0-.325-.325Z" transform="translate(-443.551 2453.643)"/>
        <path id="Path_26949" data-name="Path 26949" d="M692.975-2439.993h-.65a.325.325,0,0,0-.325.325.325.325,0,0,0,.325.325h.65a.325.325,0,0,0,.325-.325A.325.325,0,0,0,692.975-2439.993Z" transform="translate(-678.35 2453.643)"/>
        <path id="Path_26950" data-name="Path 26950" d="M710.772-3007.321l-1.5-1.2v-1.144a.325.325,0,0,0-.325-.325.325.325,0,0,0-.325.325v1.144l-1.5,1.2a.325.325,0,0,0-.051.457.325.325,0,0,0,.457.051l1.1-.878v1.465l-.23.23a.325.325,0,0,0-.089.316.325.325,0,0,0,.232.232.325.325,0,0,0,.316-.088l.1-.1.1.1a.325.325,0,0,0,.456,0,.325.325,0,0,0,0-.456l-.23-.23v-1.465l1.1.878a.325.325,0,0,0,.457-.051A.325.325,0,0,0,710.772-3007.321Z" transform="translate(-693.019 3011.292)"/>
        <path id="Path_26951" data-name="Path 26951" d="M80.525-3062.843a.975.975,0,0,0,.975-.975v-5.2a.975.975,0,0,0-.975-.975h-5.2a.975.975,0,0,0-.975.975v5.2a.975.975,0,0,0,.975.975H77.6v.979c-.012,0-.023,0-.035,0H62.975a.975.975,0,0,0-.975.975v7.8a.975.975,0,0,0,.975.975h1a1.948,1.948,0,0,0,1.921,1.625,1.948,1.948,0,0,0,1.921-1.625h7.534a1.948,1.948,0,0,0,1.921,1.625,1.948,1.948,0,0,0,1.921-1.625h1.329a.975.975,0,0,0,.975-.975v-3.063a.974.974,0,0,0-.148-.517l-2.96-4.737a.986.986,0,0,0-.142-.173v-1.26Zm-14.625,11.7a1.3,1.3,0,0,1-1.3-1.3,1.3,1.3,0,0,1,1.3-1.3,1.3,1.3,0,0,1,1.3,1.3A1.3,1.3,0,0,1,65.9-3051.143Zm11.375,0a1.3,1.3,0,0,1-1.3-1.3,1.3,1.3,0,0,1,1.3-1.3,1.3,1.3,0,0,1,1.3,1.3A1.3,1.3,0,0,1,77.275-3051.143Zm3.526-5.186a.325.325,0,0,1,.049.172v2.089h-.975a.325.325,0,0,0-.325.325.325.325,0,0,0,.325.325h.975v.325a.325.325,0,0,1-.325.325H79.2a1.948,1.948,0,0,0-1.921-1.625,1.948,1.948,0,0,0-1.921,1.625H67.821a1.948,1.948,0,0,0-1.921-1.625,1.948,1.948,0,0,0-1.921,1.625h-1a.325.325,0,0,1-.325-.325v-.325h.65a.325.325,0,0,0,.325-.325.325.325,0,0,0-.325-.325h-.65v-6.825a.325.325,0,0,1,.325-.325h14.59a.322.322,0,0,1,.275.153Zm-5.476-7.164a.325.325,0,0,1-.325-.325v-5.2a.325.325,0,0,1,.325-.325h5.2a.325.325,0,0,1,.325.325v5.2a.325.325,0,0,1-.325.325Z" transform="translate(-62 3069.993)"/>
        <path id="Path_26952" data-name="Path 26952" d="M353.5-2334.994h-6.175a.325.325,0,0,0-.325.325.325.325,0,0,0,.325.325H353.5a.325.325,0,0,0,.325-.325A.325.325,0,0,0,353.5-2334.994Z" transform="translate(-340.826 2350.919)"/>
      </g>
    </g>
  </g>
  <rect id="Rectangle_9248" data-name="Rectangle 9248" width="24" height="24" fill="none"/>
</svg>
