<svg id="flight" xmlns="http://www.w3.org/2000/svg" width="24" height="24" viewBox="0 0 24 24">
  <rect id="Rectangle_9248" data-name="Rectangle 9248" width="24" height="24" fill="none"/>
  <g id="Group_6941" data-name="Group 6941" transform="translate(3 3)">
    <path id="Path_26925" data-name="Path 26925" d="M18.757,13.152,15.911,7.963c.454-.418.84-.783,1.124-1.069A7.952,7.952,0,0,0,18.6,3.636a1.785,1.785,0,0,0-2.189-2.189,7.952,7.952,0,0,0-3.258,1.569c-.279.279-.645.666-1.068,1.127L6.9,1.294a1.948,1.948,0,0,0-2.325.334L3.465,2.737a.392.392,0,0,0,.024.576l5.33,4.511C7.361,9.5,5.858,11.262,4.73,12.612L3.488,11.98a1.173,1.173,0,0,0-1.409.193l-.964.96a.392.392,0,0,0,.063.606l1.844,1.2a1.7,1.7,0,0,0,2.09,2.089l1.2,1.844a.392.392,0,0,0,.288.176l.04,0a.391.391,0,0,0,.277-.115l.957-.961a1.168,1.168,0,0,0,.2-1.4l-.638-1.254C8.8,14.2,10.555,12.7,12.23,11.238l4.509,5.324a.391.391,0,0,0,.282.138h.016a.391.391,0,0,0,.277-.115l1.109-1.109A1.948,1.948,0,0,0,18.757,13.152ZM4.32,2.99l.807-.808a1.17,1.17,0,0,1,1.4-.2l5.023,2.757c-.662.732-1.422,1.59-2.213,2.494ZM2.635,12.726a.4.4,0,0,1,.483-.055l1.1.559c-.331.4-.611.743-.828,1.015l-1.377-.9Zm1.382,3.311A.927.927,0,0,1,3.944,14.8c.979-1.232,3.445-4.149,5.727-6.766l0,0,0,0c1.656-1.9,3.214-3.639,4.035-4.46A7.019,7.019,0,0,1,16.624,2.2a.97.97,0,0,1,.259-.035,1,1,0,0,1,.966,1.261A7.019,7.019,0,0,1,16.481,6.34c-.831.831-2.569,2.388-4.463,4.04h0c-2.623,2.287-5.543,4.755-6.768,5.727A.926.926,0,0,1,4.016,16.036Zm3.373.912a.391.391,0,0,1-.065.471l-.619.621-.9-1.376c.275-.219.618-.5,1.015-.827ZM17.87,14.924l-.808.808L12.82,10.723c.9-.79,1.761-1.551,2.5-2.216l2.754,5.02A1.17,1.17,0,0,1,17.87,14.924Z" transform="translate(-1 -1.052)" fill="#231f20"/>
    <path id="Path_26926" data-name="Path 26926" d="M36.375,7.971a.977.977,0,0,1,.554.163.972.972,0,0,1,.163.554.392.392,0,1,0,.783,0,1.724,1.724,0,0,0-.392-1.108,1.724,1.724,0,0,0-1.108-.392.392.392,0,0,0,0,.783Z" transform="translate(-22.278 -4.784)" fill="#231f20"/>
  </g>
</svg>
