<svg id="group_5_" data-name="group (5)" xmlns="http://www.w3.org/2000/svg" width="20.675" height="17.538" viewBox="0 0 20.675 17.538">
  <g id="Group_5735" data-name="Group 5735" transform="translate(16.092 9.469)">
    <g id="Group_5734" data-name="Group 5734">
      <path id="Path_23505" data-name="Path 23505" d="M400.093,273.32h-1.6a4.16,4.16,0,0,1,.252,1.43v6.043a1.783,1.783,0,0,1-.1.6h2.643a1.793,1.793,0,0,0,1.791-1.791V276.3A2.988,2.988,0,0,0,400.093,273.32Z" transform="translate(-398.494 -273.32)" fill="#00575e"/>
    </g>
  </g>
  <g id="Group_5737" data-name="Group 5737" transform="translate(0 9.469)">
    <g id="Group_5736" data-name="Group 5736">
      <path id="Path_23506" data-name="Path 23506" d="M4.331,274.751a4.159,4.159,0,0,1,.252-1.43h-1.6A2.988,2.988,0,0,0,0,276.306V279.6a1.793,1.793,0,0,0,1.791,1.791H4.434a1.783,1.783,0,0,1-.1-.6Z" transform="translate(0 -273.321)" fill="#00575e"/>
    </g>
  </g>
  <g id="Group_5739" data-name="Group 5739" transform="translate(5.525 7.914)">
    <g id="Group_5738" data-name="Group 5738">
      <path id="Path_23507" data-name="Path 23507" d="M143.469,234.815h-3.655a2.988,2.988,0,0,0-2.985,2.985v6.043a.6.6,0,0,0,.6.6h8.431a.6.6,0,0,0,.6-.6V237.8A2.988,2.988,0,0,0,143.469,234.815Z" transform="translate(-136.829 -234.815)" fill="#00575e"/>
    </g>
  </g>
  <g id="Group_5741" data-name="Group 5741" transform="translate(6.748)">
    <g id="Group_5740" data-name="Group 5740">
      <path id="Path_23508" data-name="Path 23508" d="M170.7,38.84a3.589,3.589,0,1,0,3.589,3.589A3.593,3.593,0,0,0,170.7,38.84Z" transform="translate(-167.114 -38.84)" fill="#00575e"/>
    </g>
  </g>
  <g id="Group_5743" data-name="Group 5743" transform="translate(1.35 3.346)">
    <g id="Group_5742" data-name="Group 5742" transform="translate(0 0)">
      <path id="Path_23509" data-name="Path 23509" d="M36.127,121.689a2.683,2.683,0,1,0,2.684,2.684A2.687,2.687,0,0,0,36.127,121.689Z" transform="translate(-33.443 -121.689)" fill="#00575e"/>
    </g>
  </g>
  <g id="Group_5745" data-name="Group 5745" transform="translate(13.956 3.346)">
    <g id="Group_5744" data-name="Group 5744" transform="translate(0 0)">
      <path id="Path_23510" data-name="Path 23510" d="M348.291,121.689a2.684,2.684,0,1,0,2.684,2.684A2.687,2.687,0,0,0,348.291,121.689Z" transform="translate(-345.607 -121.689)" fill="#00575e"/>
    </g>
  </g>
</svg>
