<svg id="Group_7138" data-name="Group 7138" xmlns="http://www.w3.org/2000/svg" width="57" height="57" viewBox="0 0 57 57">
  <circle id="Ellipse_596" data-name="Ellipse 596" cx="28.5" cy="28.5" r="28.5" fill="rgba(243,132,21,0.1)"/>
  <circle id="Ellipse_597" data-name="Ellipse 597" cx="20.5" cy="20.5" r="20.5" transform="translate(8 8)" fill="rgba(243,132,21,0.1)"/>
  <path id="flight_5_" data-name="flight (5)" d="M5.222,29.873a1.393,1.393,0,1,0-.985-.408A1.386,1.386,0,0,0,5.222,29.873Zm3.762-3.762A1.393,1.393,0,1,0,8,25.7,1.386,1.386,0,0,0,8.984,26.111ZM24.936,10.227a1.393,1.393,0,1,0-.985-.408,1.388,1.388,0,0,0,.985.408ZM28.7,6.4a1.393,1.393,0,1,0-.985-.408A1.387,1.387,0,0,0,28.7,6.4Zm-9.3,5.875L18.066,13.6l-7.755-.859-1.5,1.5,6.383,2.248-3.478,3.492H9.323L8.68,20.6l3.012,1.579,1.561,2.889.593-.563V22.159l3.524-3.5,2.237,6.379,1.5-1.5L20.229,15.8l1.35-1.349c.616-.616,1.46-2.407.844-3.023s-2.408.228-3.023.843Zm0,0" transform="translate(12.177 12.177)" fill="#f38415"/>
</svg>
