<svg id="hotel" xmlns="http://www.w3.org/2000/svg" width="24" height="24" viewBox="0 0 24 24">
  <rect id="Rectangle_9246" data-name="Rectangle 9246" width="24" height="24" fill="none"/>
  <g id="Group_6928" data-name="Group 6928" transform="translate(4.462 2.213)">
    <path id="Path_23838" data-name="Path 23838" d="M35.938,7.81a.232.232,0,0,0-.232.232v.6h-.4v-.6a.232.232,0,1,0-.464,0V9.716a.232.232,0,1,0,.464,0V9.111h.4v.605a.232.232,0,0,0,.464,0V8.042a.232.232,0,0,0-.232-.232Z" transform="translate(-31.926 -6.737)"/>
    <path id="Path_23838_-_Outline" data-name="Path 23838 - Outline" d="M35.065,7.76a.27.27,0,0,1,.269.269V8.6h.321V8.029a.269.269,0,0,1,.269-.269h0a.269.269,0,0,1,.269.269V9.7a.269.269,0,1,1-.539,0V9.136h-.321V9.7a.269.269,0,0,1-.539,0V8.029A.27.27,0,0,1,35.065,7.76Zm.86,2.138A.2.2,0,0,0,36.12,9.7V8.029a.195.195,0,0,0-.195-.195v0a.195.195,0,0,0-.195.195v.642h-.47V8.029a.195.195,0,0,0-.389,0V9.7a.195.195,0,1,0,.389,0V9.061h.47V9.7A.2.2,0,0,0,35.925,9.9Z" transform="translate(-31.913 -6.725)"/>
    <path id="Path_23839" data-name="Path 23839" d="M48.019,7.81h-.86a.232.232,0,0,0-.232.232V9.716a.232.232,0,0,0,.232.232h.86a.232.232,0,0,0,.232-.232V8.042a.232.232,0,0,0-.232-.232Zm-.232,1.674h-.4V8.274h.4Z" transform="translate(-42.146 -6.737)"/>
    <path id="Path_23839_-_Outline" data-name="Path 23839 - Outline" d="M47.146,7.76h.86a.269.269,0,0,1,.269.269V9.7a.27.27,0,0,1-.269.269h-.86a.27.27,0,0,1-.269-.269V8.029a.269.269,0,0,1,.269-.269Zm.86,2.138A.2.2,0,0,0,48.2,9.7V8.029a.194.194,0,0,0-.195-.195h-.86a.195.195,0,0,0-.195.195V9.7a.2.2,0,0,0,.195.195Zm-.665-1.674h.47V9.509h-.47Zm.4.075h-.321V9.434h.321Z" transform="translate(-42.134 -6.725)"/>
    <path id="Path_23840" data-name="Path 23840" d="M60.1,7.81h-.86a.232.232,0,0,0,0,.464h.2V9.716a.232.232,0,1,0,.464,0V8.274h.2a.232.232,0,1,0,0-.464Z" transform="translate(-52.367 -6.737)"/>
    <path id="Path_23840_-_Outline" data-name="Path 23840 - Outline" d="M59.227,7.76h.86a.269.269,0,1,1,0,.539h-.16V9.7a.269.269,0,0,1-.539,0V8.3h-.16a.269.269,0,1,1,0-.539Zm.86.464a.195.195,0,1,0,0-.389h-.86a.195.195,0,1,0,0,.389h.235V9.7a.195.195,0,1,0,.389,0V8.224Z" transform="translate(-52.354 -6.725)"/>
    <path id="Path_23841" data-name="Path 23841" d="M72.181,8.274a.232.232,0,0,0,0-.464h-.86a.232.232,0,0,0-.232.232V9.716a.232.232,0,0,0,.232.232h.86a.232.232,0,0,0,0-.464h-.628V9.111h.628a.232.232,0,0,0,0-.464h-.628V8.274Z" transform="translate(-62.588 -6.737)"/>
    <path id="Path_23841_-_Outline" data-name="Path 23841 - Outline" d="M71.308,7.76h.86a.269.269,0,1,1,0,.539h-.59v.3h.59a.269.269,0,0,1,0,.539h-.59v.3h.59a.269.269,0,1,1,0,.539h-.86a.27.27,0,0,1-.269-.269V8.029a.269.269,0,0,1,.269-.269Zm.86.464a.195.195,0,0,0,0-.389h-.86a.195.195,0,0,0-.195.195V9.7a.2.2,0,0,0,.195.195h.86a.195.195,0,0,0,0-.389H71.5V9.061h.665a.195.195,0,0,0,0-.389H71.5V8.224Z" transform="translate(-62.575 -6.725)"/>
    <path id="Path_23842" data-name="Path 23842" d="M84.261,9.484h-.627V8.042a.232.232,0,1,0-.464,0V9.716a.232.232,0,0,0,.232.232h.859a.232.232,0,0,0,0-.464Z" transform="translate(-72.808 -6.737)"/>
    <path id="Path_23842_-_Outline" data-name="Path 23842 - Outline" d="M84.249,9.973h-.859A.27.27,0,0,1,83.12,9.7V8.029a.269.269,0,1,1,.539,0v1.4h.59a.269.269,0,1,1,0,.539Zm-.859-2.138a.2.2,0,0,0-.195.195V9.7a.2.2,0,0,0,.195.195h.859a.195.195,0,1,0,0-.389h-.664V8.029A.2.2,0,0,0,83.389,7.835Z" transform="translate(-72.796 -6.725)"/>
    <path id="Path_23843" data-name="Path 23843" d="M30.39,4.287H29.082V.265A.266.266,0,0,0,28.816,0H17.965A.266.266,0,0,0,17.7.266V4.287H16.391a.265.265,0,0,0-.266.266V19.16a.266.266,0,0,0,.266.266h14a.266.266,0,0,0,.266-.266V4.553a.265.265,0,0,0-.266-.266ZM18.231.531H28.55V4.287H18.231Zm7.351,15.347v3.016H23.656V15.878Zm-2.457,3.016H21.2V15.878h1.926Zm7,0H26.113V15.612a.266.266,0,0,0-.266-.266H20.934a.266.266,0,0,0-.266.266v3.282H16.656V4.818H30.125Z" transform="translate(-16.088 0.037)"/>
    <path id="Path_23843_-_Outline" data-name="Path 23843 - Outline" d="M17.952-.05H28.8a.3.3,0,0,1,.3.3V4.237h1.272a.3.3,0,0,1,.3.3V19.147a.3.3,0,0,1-.3.3h-14a.3.3,0,0,1-.3-.3V4.54a.3.3,0,0,1,.3-.3h1.272V.253A.3.3,0,0,1,17.952-.05ZM30.378,19.375a.228.228,0,0,0,.228-.228V4.54a.228.228,0,0,0-.228-.229H29.032V.252A.229.229,0,0,0,28.8.025H17.952a.228.228,0,0,0-.228.228V4.312H16.378a.228.228,0,0,0-.228.228V19.147a.228.228,0,0,0,.228.228ZM18.181.481H28.575V4.312H18.181ZM28.5.556H18.255V4.237H28.5ZM16.606,4.768H30.15V18.919H26.063V15.6a.228.228,0,0,0-.228-.228H20.921a.229.229,0,0,0-.228.228v3.319H16.606Zm13.469.075H16.681v14h3.937V15.6a.3.3,0,0,1,.3-.3h4.913a.3.3,0,0,1,.3.3v3.244h3.938ZM21.149,15.828h2v3.091h-2Zm1.926.075H21.224v2.942h1.851Zm.531-.075h2v3.091h-2Zm1.925.075H23.681v2.942h1.851Z" transform="translate(-16.075 0.05)"/>
    <path id="Path_23844" data-name="Path 23844" d="M28.793,38.247H26.357a.232.232,0,0,0-.232.232v1.658a.232.232,0,0,0,.232.232h2.436a.232.232,0,0,0,.232-.232V38.479a.232.232,0,0,0-.232-.232Zm-.232,1.658H26.589V38.711h1.972Z" transform="translate(-24.762 -32.301)"/>
    <path id="Path_23844_-_Outline" data-name="Path 23844 - Outline" d="M26.344,38.2h2.437a.269.269,0,0,1,.269.27v1.658a.269.269,0,0,1-.269.269H26.344a.269.269,0,0,1-.269-.269V38.467a.269.269,0,0,1,.269-.27Zm2.437,2.123a.195.195,0,0,0,.195-.195V38.467a.195.195,0,0,0-.195-.2H26.344a.195.195,0,0,0-.195.2v1.658a.195.195,0,0,0,.195.195Zm-2.242-1.658h2.047V39.93H26.539Zm1.972.075h-1.9v1.12h1.9Z" transform="translate(-24.749 -32.288)"/>
    <path id="Path_23845" data-name="Path 23845" d="M55.73,38.247H53.294a.232.232,0,0,0-.232.232v1.658a.232.232,0,0,0,.232.232H55.73a.232.232,0,0,0,.232-.232V38.479a.232.232,0,0,0-.232-.232ZM55.5,39.905H53.526V38.711H55.5Z" transform="translate(-47.209 -32.301)"/>
    <path id="Path_23845_-_Outline" data-name="Path 23845 - Outline" d="M53.281,38.2h2.437a.268.268,0,0,1,.191.079.271.271,0,0,1,.079.191v1.658a.269.269,0,0,1-.269.269H53.281a.27.27,0,0,1-.269-.269V38.467a.269.269,0,0,1,.269-.27Zm2.436,2.123a.195.195,0,0,0,.195-.195V38.467a.2.2,0,0,0-.057-.138.193.193,0,0,0-.138-.057v0H53.281a.195.195,0,0,0-.195.2v1.658a.2.2,0,0,0,.195.195Zm-2.242-1.658h2.047V39.93H53.476Zm1.972.075h-1.9v1.12h1.9Z" transform="translate(-47.197 -32.288)"/>
    <path id="Path_23846" data-name="Path 23846" d="M80,38.482V40.14a.232.232,0,0,0,.232.232h2.436a.232.232,0,0,0,.232-.232V38.482a.232.232,0,0,0-.232-.232H80.232a.232.232,0,0,0-.232.232Zm.464.232h1.972v1.194H80.464Z" transform="translate(-69.658 -32.303)"/>
    <path id="Path_23846_-_Outline" data-name="Path 23846 - Outline" d="M82.656,38.2a.269.269,0,0,1,.269.269v1.658a.269.269,0,0,1-.269.269H80.219a.269.269,0,0,1-.269-.269V38.469a.269.269,0,0,1,.269-.269v0h2.436Zm0,2.122a.195.195,0,0,0,.195-.195V38.469a.194.194,0,0,0-.195-.195H80.219a.195.195,0,0,0-.195.195v1.658a.195.195,0,0,0,.195.195Zm-2.242-1.658h2.047v1.269H80.414Zm1.972.075h-1.9v1.12h1.9Z" transform="translate(-69.645 -32.29)"/>
    <path id="Path_23847" data-name="Path 23847" d="M28.793,58.427H26.357a.232.232,0,0,0-.232.232v1.659a.232.232,0,0,0,.232.232h2.436a.232.232,0,0,0,.232-.232V58.659A.232.232,0,0,0,28.793,58.427Zm-.232,1.659H26.589V58.891h1.972Z" transform="translate(-24.762 -49.363)"/>
    <path id="Path_23847_-_Outline" data-name="Path 23847 - Outline" d="M26.344,58.377h2.436a.27.27,0,0,1,.269.269V60.3a.27.27,0,0,1-.269.269H26.344a.27.27,0,0,1-.269-.269V58.646A.27.27,0,0,1,26.344,58.377ZM28.781,60.5a.2.2,0,0,0,.195-.195V58.646a.2.2,0,0,0-.195-.195H26.344a.2.2,0,0,0-.195.195V60.3a.2.2,0,0,0,.195.195Zm-2.242-1.659h2.047V60.11H26.539Zm1.972.075h-1.9v1.12h1.9Z" transform="translate(-24.749 -49.35)"/>
    <path id="Path_23848" data-name="Path 23848" d="M55.73,58.427H53.294a.232.232,0,0,0-.232.232v1.659a.232.232,0,0,0,.232.232H55.73a.232.232,0,0,0,.232-.232V58.659A.232.232,0,0,0,55.73,58.427ZM55.5,60.086H53.526V58.891H55.5Z" transform="translate(-47.209 -49.363)"/>
    <path id="Path_23848_-_Outline" data-name="Path 23848 - Outline" d="M53.281,58.377h2.436a.27.27,0,0,1,.269.269V60.3a.27.27,0,0,1-.269.269H53.281a.27.27,0,0,1-.269-.269V58.646A.27.27,0,0,1,53.281,58.377ZM55.718,60.5a.2.2,0,0,0,.195-.195V58.646a.2.2,0,0,0-.195-.195H53.281a.2.2,0,0,0-.195.195V60.3a.2.2,0,0,0,.195.195Zm-2.242-1.659h2.047V60.11H53.476Zm1.972.075h-1.9v1.12h1.9Z" transform="translate(-47.197 -49.35)"/>
    <path id="Path_23849" data-name="Path 23849" d="M82.668,58.427H80.232a.232.232,0,0,0-.232.232v1.659a.232.232,0,0,0,.232.232h2.436a.232.232,0,0,0,.232-.232V58.659A.232.232,0,0,0,82.668,58.427Zm-.232,1.659H80.464V58.891h1.972Z" transform="translate(-69.658 -49.363)"/>
    <path id="Path_23849_-_Outline" data-name="Path 23849 - Outline" d="M80.22,58.377h2.436a.27.27,0,0,1,.269.269V60.3a.27.27,0,0,1-.269.269H80.22a.27.27,0,0,1-.269-.269V58.646A.27.27,0,0,1,80.22,58.377ZM82.656,60.5a.2.2,0,0,0,.195-.195V58.646a.2.2,0,0,0-.195-.195H80.22a.2.2,0,0,0-.195.195V60.3a.2.2,0,0,0,.195.195Zm-2.242-1.659h2.047V60.11H80.414Zm1.972.075h-1.9v1.12h1.9Z" transform="translate(-69.646 -49.35)"/>
    <path id="Path_23850" data-name="Path 23850" d="M28.793,78.608H26.357a.232.232,0,0,0-.232.232V80.5a.232.232,0,0,0,.232.232h2.436a.232.232,0,0,0,.232-.232V78.84A.232.232,0,0,0,28.793,78.608Zm-.232,1.659H26.589V79.072h1.972Z" transform="translate(-24.762 -66.426)"/>
    <path id="Path_23850_-_Outline" data-name="Path 23850 - Outline" d="M26.344,78.558h2.436a.27.27,0,0,1,.269.269v1.659a.27.27,0,0,1-.269.269H26.344a.27.27,0,0,1-.269-.269V78.827A.27.27,0,0,1,26.344,78.558Zm2.436,2.123a.2.2,0,0,0,.195-.195V78.827a.2.2,0,0,0-.195-.195H26.344a.2.2,0,0,0-.195.195v1.659a.2.2,0,0,0,.195.195Zm-2.242-1.659h2.047v1.269H26.539Zm1.972.075h-1.9v1.12h1.9Z" transform="translate(-24.749 -66.413)"/>
    <path id="Path_23851" data-name="Path 23851" d="M55.73,78.608H53.294a.232.232,0,0,0-.232.232V80.5a.232.232,0,0,0,.232.232H55.73a.232.232,0,0,0,.232-.232V78.84A.232.232,0,0,0,55.73,78.608ZM55.5,80.267H53.526V79.072H55.5Z" transform="translate(-47.209 -66.426)"/>
    <path id="Path_23851_-_Outline" data-name="Path 23851 - Outline" d="M53.281,78.558h2.436a.27.27,0,0,1,.269.269v1.659a.27.27,0,0,1-.269.269H53.281a.27.27,0,0,1-.269-.269V78.827A.27.27,0,0,1,53.281,78.558Zm2.436,2.123a.2.2,0,0,0,.195-.195V78.827a.2.2,0,0,0-.195-.195H53.281a.2.2,0,0,0-.195.195v1.659a.2.2,0,0,0,.195.195Zm-2.242-1.659h2.047v1.269H53.476Zm1.972.075h-1.9v1.12h1.9Z" transform="translate(-47.197 -66.413)"/>
    <path id="Path_23852" data-name="Path 23852" d="M82.668,78.608H80.232A.232.232,0,0,0,80,78.84V80.5a.232.232,0,0,0,.232.232h2.436A.232.232,0,0,0,82.9,80.5V78.84A.232.232,0,0,0,82.668,78.608Zm-.232,1.659H80.464V79.072h1.972Z" transform="translate(-69.658 -66.426)"/>
    <path id="Path_23852_-_Outline" data-name="Path 23852 - Outline" d="M80.22,78.558h2.436a.27.27,0,0,1,.269.269v1.659a.27.27,0,0,1-.269.269H80.22a.27.27,0,0,1-.269-.269V78.827A.27.27,0,0,1,80.22,78.558Zm2.436,2.123a.2.2,0,0,0,.195-.195V78.827a.2.2,0,0,0-.195-.195H80.22a.2.2,0,0,0-.195.195v1.659a.2.2,0,0,0,.195.195Zm-2.242-1.659h2.047v1.269H80.414Zm1.972.075h-1.9v1.12h1.9Z" transform="translate(-69.646 -66.413)"/>
  </g>
</svg>
