<svg id="lunch_dinner" xmlns="http://www.w3.org/2000/svg" width="24" height="24" viewBox="0 0 24 24">
  <rect id="Rectangle_9244" data-name="Rectangle 9244" width="24" height="24" fill="none"/>
  <path id="Path_26835" data-name="Path 26835" d="M58.947,130.3a8.189,8.189,0,0,1-13.475,0,.3.3,0,1,0-.486.336,8.78,8.78,0,0,0,14.447,0,.3.3,0,0,0-.486-.336Z" transform="translate(-39.238 -113.871)" fill="#1a171b"/>
  <path id="Path_26835_-_Outline" data-name="Path 26835 - Outline" d="M45.179,129.974a.445.445,0,0,1,.367.192,8.039,8.039,0,0,0,13.228,0,.445.445,0,0,1,.366-.192h0a.445.445,0,0,1,.366.7,8.93,8.93,0,0,1-14.693,0,.446.446,0,0,1,.366-.7Zm6.981,3.962a8.346,8.346,0,0,1-6.861-3.6.145.145,0,0,0-.239.165,8.63,8.63,0,0,0,14.2,0,.146.146,0,0,0-.119-.228.145.145,0,0,0-.12.063A8.347,8.347,0,0,1,52.16,133.936Z" transform="translate(-39.188 -113.821)" fill="#1a171b"/>
  <path id="Path_26836" data-name="Path 26836" d="M50.306,99.589a.3.3,0,0,0,.171-.055,8.129,8.129,0,0,1,4.747-1.516c.077,0,.154,0,.23,0h0a8.111,8.111,0,0,1,4.881,1.788.3.3,0,0,0,.369-.461,8.7,8.7,0,0,0-5.234-1.918h0c-.082,0-.165,0-.247,0a8.72,8.72,0,0,0-5.09,1.625.3.3,0,0,0,.172.536Z" transform="translate(-42.252 -94.427)" fill="#1a171b"/>
  <path id="Path_26836_-_Outline" data-name="Path 26836 - Outline" d="M60.47,99.974a.445.445,0,0,1-.279-.1A7.962,7.962,0,0,0,55.4,98.121c-.081,0-.155,0-.226,0a7.979,7.979,0,0,0-4.66,1.488A.446.446,0,0,1,50,98.88a8.87,8.87,0,0,1,5.177-1.653c.083,0,.168,0,.251,0a8.845,8.845,0,0,1,5.323,1.95.446.446,0,0,1-.279.793Zm-5.3-2.156c.074,0,.151,0,.234,0a8.261,8.261,0,0,1,4.971,1.821.145.145,0,0,0,.2-.022.146.146,0,0,0-.022-.2,8.548,8.548,0,0,0-5.144-1.885c-.081,0-.162,0-.243,0a8.571,8.571,0,0,0-5,1.6.146.146,0,1,0,.17.237A8.277,8.277,0,0,1,55.174,97.818Z" transform="translate(-42.202 -94.377)" fill="#1a171b"/>
  <path id="Path_26837" data-name="Path 26837" d="M54.207,116.308a5.9,5.9,0,0,0,5.735-4.481.3.3,0,1,0-.574-.143,5.32,5.32,0,1,1-.85-4.4.3.3,0,1,0,.479-.347,5.909,5.909,0,1,0-4.79,9.37Z" transform="translate(-41.235 -98.621)" fill="#1a171b"/>
  <path id="Path_26837_-_Outline" data-name="Path 26837 - Outline" d="M54.157,116.408a6.059,6.059,0,1,1,4.912-9.608.446.446,0,1,1-.722.523,5.167,5.167,0,1,0,.826,4.275.446.446,0,1,1,.865.215A6.047,6.047,0,0,1,54.157,116.408Zm0-11.818a5.759,5.759,0,1,0,5.59,7.151.146.146,0,0,0-.142-.181.145.145,0,0,0-.141.11,5.47,5.47,0,1,1-.874-4.523.146.146,0,0,0,.2.032.146.146,0,0,0,.032-.2A5.78,5.78,0,0,0,54.157,104.59Z" transform="translate(-41.185 -98.571)" fill="#1a171b"/>
  <path id="Path_26838" data-name="Path 26838" d="M80,97.62a.3.3,0,0,0-.013-.028.292.292,0,0,0-.042-.062c-.007-.007-.012-.015-.02-.022a.29.29,0,0,0-.084-.057h0a.291.291,0,0,0-.1-.021l-.011,0c-.006,0-.011,0-.017,0a.314.314,0,0,0-.081.016l-.024.008a.313.313,0,0,0-.083.055l0,0h0c-.1.1-4.507,4.508-1.441,9.7a.3.3,0,0,0,.254.145h1.1v7.33a.3.3,0,0,0,.591,0V97.723A.292.292,0,0,0,80,97.62Zm-1.5,9.147a7.209,7.209,0,0,1,.93-8.27v8.27Z" transform="translate(-58.274 -94.427)" fill="#1a171b"/>
  <path id="Path_26838_-_Outline" data-name="Path 26838 - Outline" d="M79.679,97.227a.163.163,0,0,1,.033,0,.434.434,0,0,1,.127.027l.015.006a.439.439,0,0,1,.127.085.274.274,0,0,1,.025.027l.006.006a.44.44,0,0,1,.063.094l0,.008a.328.328,0,0,1,.016.037.435.435,0,0,1,.03.154v16.965a.446.446,0,0,1-.891,0v-7.18h-.95a.447.447,0,0,1-.384-.219,7.564,7.564,0,0,1-1.1-3.765,7.847,7.847,0,0,1,.626-3.127,9.817,9.817,0,0,1,1.942-2.99l.006-.006h0l.038-.037h.007a.5.5,0,0,1,.077-.044l.006,0,.028-.01h0l.008,0a.466.466,0,0,1,.1-.022A.172.172,0,0,1,79.679,97.227Zm.006.3h-.012a.167.167,0,0,0-.042.008l-.017.006a.165.165,0,0,0-.034.022l-.043.048h0a9.6,9.6,0,0,0-1.833,2.848,7.092,7.092,0,0,0,.459,6.625.146.146,0,0,0,.125.071h1.25v7.48a.146.146,0,0,0,.291,0V97.673a.147.147,0,0,0-.012-.05l-.008-.016a.137.137,0,0,0-.018-.027l-.011-.012h0a.15.15,0,0,0-.036-.026l0,0A.144.144,0,0,0,79.685,97.529Zm-.152.493v8.845H78.366l-.043-.076a7.37,7.37,0,0,1,.943-8.438Zm-.3,8.545V98.889a6.969,6.969,0,0,0-.691,7.678Z" transform="translate(-58.224 -94.377)" fill="#1a171b"/>
  <path id="Path_26839" data-name="Path 26839" d="M40.931,101.608V97.723a.3.3,0,1,0-.591,0v3.885a1.65,1.65,0,0,1-1.353,1.621V97.723a.3.3,0,1,0-.591,0v5.506a1.65,1.65,0,0,1-1.353-1.621V97.723a.3.3,0,1,0-.591,0v3.885a2.241,2.241,0,0,0,1.944,2.217v10.863a.3.3,0,0,0,.591,0V103.825A2.241,2.241,0,0,0,40.931,101.608Z" transform="translate(-34.202 -94.427)" fill="#1a171b"/>
  <path id="Path_26839_-_Outline" data-name="Path 26839 - Outline" d="M36.7,97.227a.446.446,0,0,1,.446.446v3.885a1.5,1.5,0,0,0,1.053,1.43V97.673a.446.446,0,1,1,.891,0v5.315a1.5,1.5,0,0,0,1.053-1.43V97.673a.446.446,0,1,1,.891,0v3.885a2.4,2.4,0,0,1-1.944,2.345v10.735a.446.446,0,0,1-.891,0V103.9a2.4,2.4,0,0,1-1.944-2.345V97.673A.446.446,0,0,1,36.7,97.227Zm1.8,6.131-.177-.032a1.8,1.8,0,0,1-1.476-1.768V97.673a.145.145,0,1,0-.291,0v3.885a2.094,2.094,0,0,0,1.813,2.069l.13.017v10.995a.146.146,0,0,0,.291,0V103.644l.13-.017a2.094,2.094,0,0,0,1.814-2.069V97.673a.146.146,0,1,0-.291,0v3.885a1.8,1.8,0,0,1-1.476,1.768l-.177.032V97.673a.146.146,0,1,0-.291,0Z" transform="translate(-34.152 -94.377)" fill="#1a171b"/>
</svg>
